<svg xmlns="http://www.w3.org/2000/svg" viewBox="0 0 512 512">
    <path d="M327.287 246.852l-74.931-76.595c-4.941-5.06-13.039-5.146-18.099-.205-5.06 4.941-5.146 13.056-.205 18.099l53.854 55.057H12.8C5.734 243.2 0 248.934 0 256s5.734 12.8 12.8 12.8h275.098l-53.845 55.057c-4.941 5.043-4.855 13.158.205 18.099 5.06 4.941 13.158 4.855 18.099-.205l75.128-76.8c4.939-5.043 4.854-13.158-.198-18.099z"/>
    <path d="M499.2 0H166.4c-7.066 0-12.8 5.734-12.8 12.8V192h25.6V25.6h307.2v460.8H179.2V320h-25.6v179.2c0 7.066 5.734 12.8 12.8 12.8h332.8c7.066 0 12.8-5.734 12.8-12.8V12.8C512 5.734 506.266 0 499.2 0z"/>
</svg>
