<svg xmlns="http://www.w3.org/2000/svg" viewBox="0 0 512 512">
    <path d="M358.401 192V12.8c0-7.066-5.734-12.8-12.8-12.8h-332.8C5.735 0 .001 5.734.001 12.8v486.4c0 7.066 5.734 12.8 12.8 12.8h332.8c7.066 0 12.8-5.734 12.8-12.8V320h-25.6v166.4h-307.2V25.6h307.2V192h25.6z"/>
    <path d="M508.161 246.844l-74.931-76.595c-4.941-5.06-13.047-5.146-18.099-.205s-5.146 13.056-.205 18.099L468.78 243.2H193.673c-7.066 0-12.8 5.734-12.8 12.8 0 7.066 5.734 12.8 12.8 12.8h275.098l-53.854 55.057c-4.941 5.043-4.847 13.158.205 18.099 5.06 4.941 13.158 4.855 18.099-.205l75.128-76.8c4.94-5.051 4.855-13.166-.188-18.107z"/>
</svg>
